<?xml version="1.0" ?><!DOCTYPE svg  PUBLIC '-//W3C//DTD SVG 1.1//EN'  'http://www.w3.org/Graphics/SVG/1.1/DTD/svg11.dtd'><svg enable-background="new 0 0 24 24" height="24px" id="Layer_1" version="1.1" viewBox="0 0 24 24" width="24px" xml:space="preserve" xmlns="http://www.w3.org/2000/svg" xmlns:xlink="http://www.w3.org/1999/xlink"><g><path d="M11.5,1.7c2.5,0.1,4.3,0.8,6.1,2.2c2.2,1.6,3.5,3.9,4,6.7c0.1,0.8,0.2,1.4,0.2,2.3c0,0.7,0.1,0.9,0.2,1.1   c0.1,0.2,0.3,0.3,0.4,0.3c0.1,0,0.2,0,0.2-0.1c0.2-0.1,0.3-0.4,0.2-0.7c0-0.1-0.1-0.2-0.1-0.7c0-1-0.1-1.6-0.3-2.4   c-0.6-3.1-2-5.6-4.4-7.3c-2-1.5-4-2.2-6.7-2.4c-0.8,0-0.9-0.1-0.9-0.1c-0.2-0.2-0.5-0.1-0.7,0.1C9.8,0.9,9.8,1.2,10,1.4   C10.4,1.6,10.7,1.7,11.5,1.7z"/><path d="M17.9,8.5c0.5,0.9,0.8,2,0.8,3.1c0,0.7,0.1,1.3,0.7,1.7c0.1,0,0.1,0.1,0.2,0.1c0.2,0,0.4-0.1,0.4-0.3   c0.1-0.2,0-0.5-0.2-0.7c-0.1,0-0.2-0.1-0.2-0.8c0-1.3-0.3-2.6-0.9-3.6c-0.6-1.2-1.6-2.2-2.7-2.8c-1-0.6-2.4-1-3.7-1.1   c-0.4,0-0.5-0.1-0.5-0.2c-0.2-0.2-0.5-0.2-0.7,0c-0.2,0.2-0.2,0.5,0,0.7C11.3,4.9,11.8,5,12.2,5c1.2,0.1,2.4,0.5,3.3,1   C16.5,6.6,17.3,7.4,17.9,8.5z"/><path d="M16.4,10.8c-0.1-0.7-0.2-1.2-0.4-1.6c-0.5-1-1.3-1.6-2.7-1.7c-0.5-0.1-0.5-0.1-0.6-0.2C12.5,7.1,12.2,7,12,7.2   c-0.2,0.2-0.2,0.5-0.1,0.7c0.3,0.3,0.6,0.4,1.2,0.5c1,0.1,1.6,0.5,1.9,1.2c0.2,0.4,0.3,0.8,0.3,1.3c0.1,0.5,0.2,0.9,0.5,1.1   c0.1,0.1,0.2,0.1,0.3,0.1c0.2,0,0.3-0.1,0.4-0.2c0.2-0.2,0.1-0.5-0.1-0.7C16.5,11.2,16.4,11.2,16.4,10.8z"/><path d="M22.8,17.8c-0.3-0.3-1.9-1.6-2.6-2.1c-0.6-0.4-1.4-0.9-1.9-1.1c-0.6-0.3-1.3-0.4-1.9-0.2c-0.5,0.2-0.7,0.4-1.3,1.1   c-0.3,0.3-0.5,0.6-0.5,0.7c0,0-0.1,0.1-0.2,0.1c-0.3,0.1-0.8,0-1.7-0.4c-0.8-0.4-1.4-0.9-2.2-1.6c-0.7-0.6-1.3-1.4-1.7-2   C8.3,11.5,8,10.5,8,10.1C8,9.9,8,9.6,8.1,9.5c0,0,0.1-0.1,0.1-0.1C8.3,9.3,8.5,9.2,8.7,9C9.6,8.3,9.9,8,10,7.5   c0.1-0.5,0-1.1-0.4-1.9C9,4.4,7.1,1.8,6.3,1.3C6.2,1.2,5.9,1.1,5.8,1C5.4,0.9,4.9,0.9,4.6,0.9C4.2,1,3.7,1.3,2.7,2   C2.2,2.4,1.4,3.2,1.1,3.6C0.6,4.6,0.7,5.4,1.2,6.7c0.7,1.8,1.6,3.6,2.7,5.4c0.2,0.3,0.3,0.5,0.5,0.8c0.2,0.3,0.4,0.5,0.6,0.8   c1.8,2.5,4,4.6,6.5,6.3l0.1,0.1c0.1,0.1,0.3,0.2,0.4,0.3l0.3,0.2c0.2,0.1,0.3,0.2,0.5,0.3l2.8,1.6c0.2,0.1,0.4,0.2,0.6,0.3l0.3,0.1   c0.3,0.1,0.6,0.3,0.9,0.4c0.6,0.2,0.9,0.3,1.3,0.3c0.1,0,0.1,0,0.2,0c0.7,0,1.3-0.3,2-0.8c0.8-0.6,1.9-1.9,2.2-2.7   C23.4,19.2,23.3,18.4,22.8,17.8z"/></g></svg>